<?xml version="1.0" encoding="UTF-8" standalone="yes"?>
<!DOCTYPE svg PUBLIC "-//W3C//DTD SVG 1.1//EN" "http://www.w3.org/Graphics/SVG/1.1/DTD/svg11.dtd">

<svg width="500" height="500" viewBox="0 0 500 500" xmlns="http://www.w3.org/2000/svg" xmlns:xlink="http://www.w3.org/1999/xlink" version="1.1" baseProfile="full">
    <g transform="scale(1,-1) translate(0,-500)">
        <path d="M 257.452600 1.081600 L 263.864900 1.325200 L 270.235000 1.728900 L 276.561000 2.290700 L 282.840800 3.008500 L 289.072500 3.880500 L 295.254100 4.904700 L 301.383700 6.079100 L 307.459200 7.401700 L 313.478800 8.870600 L 319.440500 10.483900 L 325.342300 12.239500 L 331.182200 14.135500 L 336.958300 16.169900 L 342.668700 18.340800 L 348.311200 20.646200 L 359.385300 25.652700 L 370.164800 31.173600 L 380.634000 37.193300 L 390.777300 43.696000 L 400.578900 50.666100 L 410.023200 58.087800 L 419.094300 65.945400 L 427.776600 74.223300 L 436.054500 82.905600 L 443.912100 91.976700 L 451.333800 101.421000 L 458.303900 111.222600 L 464.806600 121.365900 L 470.826300 131.835100 L 476.347200 142.614600 L 481.353700 153.688700 L 483.659100 159.331200 L 485.830000 165.041600 L 487.864400 170.817700 L 489.760400 176.657600 L 491.516000 182.559400 L 493.129300 188.521100 L 494.598200 194.540700 L 495.920800 200.616200 L 497.095200 206.745800 L 498.119400 212.927400 L 498.991400 219.159100 L 499.709200 225.438900 L 500.271000 231.764900 L 500.674700 238.135000 L 500.918300 244.547300 L 501.000000 251.000000 L 500.918300 257.452600 L 500.674700 263.864900 L 500.271000 270.235000 L 499.709200 276.561000 L 498.991400 282.840800 L 498.119400 289.072500 L 497.095200 295.254100 L 495.920800 301.383700 L 494.598200 307.459200 L 493.129300 313.478800 L 491.516000 319.440500 L 489.760400 325.342300 L 487.864400 331.182200 L 485.830000 336.958300 L 483.659100 342.668700 L 481.353700 348.311200 L 476.347200 359.385300 L 470.826300 370.164800 L 464.806600 380.634000 L 458.303900 390.777300 L 451.333800 400.578900 L 443.912100 410.023200 L 436.054500 419.094300 L 427.776600 427.776600 L 419.094300 436.054500 L 410.023200 443.912100 L 400.578900 451.333800 L 390.777300 458.303900 L 380.634000 464.806600 L 370.164800 470.826300 L 359.385300 476.347200 L 348.311200 481.353700 L 342.668700 483.659100 L 336.958300 485.830000 L 331.182200 487.864400 L 325.342300 489.760400 L 319.440500 491.516000 L 313.478800 493.129300 L 307.459200 494.598200 L 301.383700 495.920800 L 295.254100 497.095200 L 289.072500 498.119400 L 282.840800 498.991400 L 276.561000 499.709200 L 270.235000 500.271000 L 263.864900 500.674700 L 257.452600 500.918300 L 251.000000 501.000000 L 244.547300 500.918300 L 238.135000 500.674700 L 231.764900 500.271000 L 225.438900 499.709200 L 219.159100 498.991400 L 212.927400 498.119400 L 206.745800 497.095200 L 200.616200 495.920800 L 194.540700 494.598200 L 188.521100 493.129300 L 182.559400 491.516000 L 176.657600 489.760400 L 170.817700 487.864400 L 165.041600 485.830000 L 159.331200 483.659100 L 153.688700 481.353700 L 142.614600 476.347200 L 131.835100 470.826300 L 121.365900 464.806600 L 111.222600 458.303900 L 101.421000 451.333800 L 91.976700 443.912100 L 82.905600 436.054500 L 74.223300 427.776600 L 65.945400 419.094300 L 58.087800 410.023200 L 50.666100 400.578900 L 43.696000 390.777300 L 37.193300 380.634000 L 31.173600 370.164800 L 25.652700 359.385300 L 20.646200 348.311200 L 18.340800 342.668700 L 16.169900 336.958300 L 14.135500 331.182200 L 12.239500 325.342300 L 10.483900 319.440500 L 8.870600 313.478800 L 7.401700 307.459200 L 6.079100 301.383700 L 4.904700 295.254100 L 3.880500 289.072500 L 3.008500 282.840800 L 2.290700 276.561000 L 1.728900 270.235000 L 1.325200 263.864900 L 1.081600 257.452600 L 1.000000 251.000000 L 1.081600 244.547300 L 1.325200 238.135000 L 1.728900 231.764900 L 2.290700 225.438900 L 3.008500 219.159100 L 3.880500 212.927400 L 4.904700 206.745800 L 6.079100 200.616200 L 7.401700 194.540700 L 8.870600 188.521100 L 10.483900 182.559400 L 12.239500 176.657600 L 14.135500 170.817700 L 16.169900 165.041600 L 18.340800 159.331200 L 20.646200 153.688700 L 25.652700 142.614600 L 31.173600 131.835100 L 37.193300 121.365900 L 43.696000 111.222600 L 50.666100 101.421000 L 58.087800 91.976700 L 65.945400 82.905600 L 74.223300 74.223300 L 82.905600 65.945400 L 91.976700 58.087800 L 101.421000 50.666100 L 111.222600 43.696000 L 121.365900 37.193300 L 131.835100 31.173600 L 142.614600 25.652700 L 153.688700 20.646200 L 159.331200 18.340800 L 165.041600 16.169900 L 170.817700 14.135500 L 176.657600 12.239500 L 182.559400 10.483900 L 188.521100 8.870600 L 194.540700 7.401700 L 200.616200 6.079100 L 206.745800 4.904700 L 212.927400 3.880500 L 219.159100 3.008500 L 225.438900 2.290700 L 231.764900 1.728900 L 238.135000 1.325200 L 244.547300 1.081600 L 251.000000 1.000000 Z M 87.228800 123.850800 L 86.183500 124.240700 L 85.226000 124.826900 L 84.388700 125.600900 L 83.704100 126.553800 L 59.839800 167.729600 L 59.036300 169.206100 L 58.654100 170.575600 L 58.710900 171.277600 L 58.981000 172.021500 L 59.500400 172.830400 L 60.305100 173.727000 L 62.914300 175.875400 L 67.096800 178.649900 L 73.140300 182.233900 L 81.333100 186.810700 L 105.318100 199.675500 L 141.355700 218.710600 L 191.750000 245.382300 L 258.804900 281.156900 L 233.453700 325.062200 L 228.474900 322.140200 L 226.520700 321.069800 L 224.836200 320.313800 L 223.356400 319.912900 L 222.015800 319.907700 L 220.749300 320.338800 L 219.491600 321.246700 L 218.177600 322.672200 L 216.742000 324.655800 L 213.244900 330.459700 L 208.478700 338.983300 L 201.921300 350.551400 L 201.200900 352.024300 L 200.902200 353.411300 L 200.953200 354.106000 L 201.160300 354.819200 L 202.110300 356.354600 L 203.887400 358.124100 L 206.626800 360.234300 L 210.463500 362.791900 L 215.532800 365.903400 L 229.909600 374.215100 L 250.838300 386.022400 L 279.400100 402.178200 L 316.676200 423.535800 L 321.149600 426.214100 L 323.306400 427.385300 L 325.373100 428.251300 L 327.321700 428.667200 L 328.243100 428.661200 L 329.124600 428.488300 L 329.962700 428.130400 L 330.754000 427.569500 L 331.495000 426.787400 L 332.182100 425.766100 L 338.943800 414.286300 L 343.951400 405.888900 L 347.228900 399.957600 L 348.226500 397.724100 L 348.800600 395.875900 L 348.954300 394.336000 L 348.690600 393.027300 L 348.012600 391.872900 L 346.923100 390.795500 L 345.425300 389.718200 L 343.522200 388.563900 L 338.512000 385.716000 L 324.157600 377.575200 L 312.387800 371.048400 L 303.090700 365.809000 L 296.154600 361.530400 L 293.537000 359.649400 L 291.467800 357.886100 L 289.932900 356.199700 L 288.918400 354.549400 L 288.410300 352.894400 L 288.394700 351.193800 L 288.857600 349.406900 L 289.785000 347.492700 L 290.976300 345.736100 L 292.288700 344.443700 L 293.764700 343.607500 L 295.447000 343.219300 L 297.378300 343.271200 L 299.601100 343.755200 L 302.158000 344.663200 L 305.091800 345.987300 L 312.260300 349.851200 L 321.447400 355.282900 L 332.994400 362.218000 L 347.242100 370.592400 L 411.029000 260.117600 L 415.946800 263.019900 L 417.875900 264.098100 L 419.539000 264.870300 L 421.001700 265.293500 L 422.329300 265.324700 L 423.587200 264.921000 L 424.841000 264.039200 L 426.156000 262.636500 L 427.597700 260.669800 L 431.122700 254.872400 L 442.572000 234.617700 L 443.054800 233.545800 L 443.306300 232.430900 L 443.335000 231.305500 L 443.149500 230.202200 L 442.758400 229.153700 L 442.170200 228.192600 L 441.393700 227.351500 L 440.437300 226.662900 L 437.496900 224.966900 L 435.324600 223.714400 L 431.945300 221.764900 L 425.384000 217.978000 L 413.665500 211.212900 L 394.814900 200.329300 L 327.817100 161.644000 L 322.789100 158.703800 L 320.815200 157.635300 L 319.114400 156.886800 L 317.621500 156.497600 L 316.271300 156.506900 L 314.998600 156.953800 L 313.738300 157.877700 L 312.425000 159.317700 L 310.993600 161.313000 L 307.515800 167.126700 L 302.783200 175.632400 L 296.274100 187.143900 L 295.781700 188.248800 L 295.536700 189.390100 L 295.523600 190.533400 L 295.727200 191.644400 L 296.131800 192.688600 L 296.722200 193.631700 L 297.482800 194.439500 L 298.398200 195.077400 L 298.408800 195.088100 L 305.425600 198.986400 L 311.872400 202.436000 L 317.541500 205.578700 L 322.225400 208.556200 L 324.133000 210.027400 L 325.716500 211.510400 L 326.949800 213.023000 L 327.807100 214.582900 L 328.262500 216.207800 L 328.289800 217.915500 L 327.863200 219.723700 L 326.956800 221.650000 L 325.790000 223.334900 L 324.500300 224.577000 L 323.094400 225.410400 L 321.578700 225.869200 L 319.959900 225.987500 L 318.244600 225.799600 L 316.439400 225.339300 L 314.550700 224.641000 L 310.549700 222.666500 L 306.294100 220.149000 L 297.230000 214.576700 L 280.630100 243.337200 L 91.637700 124.429600 L 90.566200 123.946800 L 89.452600 123.695200 L 88.329300 123.666100 Z" transform="scale(1.000000,1.000000) translate(-1.000000,-1.000000)" fill="#0081ea" opacity="1.000000"></path>
    </g>
</svg>